<?xml version="1.0" encoding="UTF-8"?>
<svg version="1.1" xmlns="http://www.w3.org/2000/svg" width="500" height="500">
<path d="M0 0 C165 0 330 0 500 0 C500 165 500 330 500 500 C335 500 170 500 0 500 C0 335 0 170 0 0 Z " fill="#000000" transform="translate(0,0)"/>
<path d="M0 0 C2.64 0 5.28 0 8 0 C8 4.29 8 8.58 8 13 C9.65 12.01 11.3 11.02 13 10 C18.91295334 9.22453071 22.41591941 10.08771935 27.30078125 13.5234375 C30.49619359 16.30014063 31.71812221 19.01615125 32.30859375 23.171875 C32.68482122 29.96677108 30.33656089 33.30941474 25.9375 38.375 C21.49685214 40.83152861 16.97456309 40.66224834 12 40 C11.01 39.34 10.02 38.68 9 38 C8.67 38.66 8.34 39.32 8 40 C5.36 40 2.72 40 0 40 C0 26.8 0 13.6 0 0 Z " fill="#F8F8F8" transform="translate(169,228)"/>
<path d="M0 0 C2.64 0 5.28 0 8 0 C8 4.29 8 8.58 8 13 C9.65 12.01 11.3 11.02 13 10 C18.29962324 9.40165544 21.94737626 9.74111524 26.45703125 12.671875 C30.29256259 15.97334501 31.81757559 19.54060468 32.4375 24.5 C31.68895842 30.48833266 29.73562932 35.15230118 25 39 C21.91701949 40.02766017 19.66869574 40.16598738 16.4375 40.1875 C15.46683594 40.20167969 14.49617188 40.21585937 13.49609375 40.23046875 C11 40 11 40 9 38 C8.67 38.66 8.34 39.32 8 40 C5.36 40 2.72 40 0 40 C0 26.8 0 13.6 0 0 Z " fill="#F8F8F8" transform="translate(264,228)"/>
<path d="M0 0 C2.53027637 1.13936421 4.6631194 2.47387389 7 4 C7.433125 3.525625 7.86625 3.05125 8.3125 2.5625 C10.86051326 0.20322846 12.95349703 0.00344466 16.375 -0.25 C21.00568692 0.06935772 23.29828614 1.54138812 26.75 4.5 C29.17093468 7.40512161 29.11950248 10.28209155 29.09765625 13.88671875 C29.09443359 14.82451172 29.09121094 15.76230469 29.08789062 16.72851562 C29.07532227 18.19321289 29.07532227 18.19321289 29.0625 19.6875 C29.05798828 20.67556641 29.05347656 21.66363281 29.04882812 22.68164062 C29.0370432 25.12111958 29.01910783 27.56056741 29 30 C26.03 30 23.06 30 20 30 C19.93941406 28.56785156 19.87882812 27.13570313 19.81640625 25.66015625 C19.73201896 23.79425959 19.64737007 21.92837476 19.5625 20.0625 C19.52318359 19.11697266 19.48386719 18.17144531 19.44335938 17.19726562 C19.40146484 16.29814453 19.35957031 15.39902344 19.31640625 14.47265625 C19.26141968 13.22367554 19.26141968 13.22367554 19.20532227 11.94946289 C19.20632897 9.99661142 19.20632897 9.99661142 18 9 C14.54187831 8.66661404 14.54187831 8.66661404 11 9 C8.9859044 12.0211434 8.73163404 12.80660017 8.5859375 16.23046875 C8.54726562 17.03291016 8.50859375 17.83535156 8.46875 18.66210938 C8.42234375 19.91217773 8.42234375 19.91217773 8.375 21.1875 C8.33632812 22.03248047 8.29765625 22.87746094 8.2578125 23.74804688 C8.16363721 25.83167524 8.08073325 27.91580753 8 30 C5.36 30 2.72 30 0 30 C-0.01981934 29.43490723 -0.03963867 28.86981445 -0.06005859 28.28759766 C-0.15518236 25.73292003 -0.26491058 23.17907459 -0.375 20.625 C-0.4059375 19.73554688 -0.436875 18.84609375 -0.46875 17.9296875 C-0.50742188 17.07890625 -0.54609375 16.228125 -0.5859375 15.3515625 C-0.63306885 14.17327881 -0.63306885 14.17327881 -0.68115234 12.97119141 C-0.8399465 10.76997061 -0.8399465 10.76997061 -3 9 C-6 8.66666667 -6 8.66666667 -9 9 C-11.3968665 11.3968665 -11.28281133 12.07028314 -11.4140625 15.3515625 C-11.47207031 16.62773437 -11.47207031 16.62773437 -11.53125 17.9296875 C-11.57765625 19.26386719 -11.57765625 19.26386719 -11.625 20.625 C-11.68300781 21.97078125 -11.68300781 21.97078125 -11.7421875 23.34375 C-11.83658776 25.56215605 -11.91938805 27.78105013 -12 30 C-14.97 30 -17.94 30 -21 30 C-21 20.43 -21 10.86 -21 1 C-18.36 1 -15.72 1 -13 1 C-12.67 1.66 -12.34 2.32 -12 3 C-11.319375 2.505 -10.63875 2.01 -9.9375 1.5 C-6.24107205 -0.38753767 -4.1150616 -0.49664537 0 0 Z " fill="#F6F6F6" transform="translate(100,238)"/>
<path d="M0 0 C4.31367027 2.41157944 5.89341854 4.87340391 7.75 9.4375 C7.75 11.7475 7.75 14.0575 7.75 16.4375 C0.49 16.4375 -6.77 16.4375 -14.25 16.4375 C-11.83473521 20.61657514 -11.83473521 20.61657514 -8.91015625 20.828125 C-8.05292969 20.78171875 -7.19570313 20.7353125 -6.3125 20.6875 C-5.03052734 20.63335937 -5.03052734 20.63335937 -3.72265625 20.578125 C-2.49869141 20.50851562 -2.49869141 20.50851562 -1.25 20.4375 C0.07 20.4375 1.39 20.4375 2.75 20.4375 C4.5 22.4375 4.5 22.4375 5.75 24.4375 C0.82799846 28.93761569 -3.63763633 29.04372402 -10.18359375 28.8203125 C-15.64221303 28.1388543 -18.05872406 25.75417341 -21.625 21.8125 C-23.83113052 17.23053661 -24.03966018 13.43596754 -23.25 8.4375 C-21.16990677 3.94449863 -18.51845949 1.34052422 -14.16796875 -0.8671875 C-9.11063804 -2.70059863 -4.79539904 -2.05517102 0 0 Z " fill="#F3F3F3" transform="translate(322.25,239.5625)"/>
<path d="M0 0 C2.91366558 1.53629639 3.63789405 2.30059107 5.5625 5.1875 C5.78955078 7.6394043 5.78955078 7.6394043 5.7578125 10.51171875 C5.75136719 11.53974609 5.74492187 12.56777344 5.73828125 13.62695312 C5.72152344 14.69880859 5.70476562 15.77066406 5.6875 16.875 C5.67847656 17.95845703 5.66945312 19.04191406 5.66015625 20.15820312 C5.6365734 22.8348571 5.60366126 25.51106797 5.5625 28.1875 C1.89583333 28.1875 -1.77083333 28.1875 -5.4375 28.1875 C-6.27023438 28.23390625 -7.10296875 28.2803125 -7.9609375 28.328125 C-12.34190285 28.49616203 -15.58594617 28.57153408 -19.625 26.75 C-21.91375557 23.51417316 -22.03502791 21.29186983 -22.1015625 17.40625 C-21.08558142 14.01167793 -19.44594144 12.97564993 -16.4375 11.1875 C-12.88671875 10.796875 -12.88671875 10.796875 -9.125 10.9375 C-7.87074219 10.97359375 -6.61648437 11.0096875 -5.32421875 11.046875 C-3.89529297 11.11648437 -3.89529297 11.11648437 -2.4375 11.1875 C-3.66371849 8.63623775 -3.66371849 8.63623775 -5.4375 6.1875 C-10.01600782 5.7444186 -13.96546459 6.06949115 -18.4375 7.1875 C-20.4375 4.1875 -20.4375 4.1875 -20.4375 1.1875 C-13.4754653 -2.36758155 -7.27489372 -3.42658037 0 0 Z " fill="#F7F7F7" transform="translate(226.4375,239.8125)"/>
<path d="M0 0 C2.91366558 1.53629639 3.63789405 2.30059107 5.5625 5.1875 C5.78955078 7.6394043 5.78955078 7.6394043 5.7578125 10.51171875 C5.75136719 11.53974609 5.74492187 12.56777344 5.73828125 13.62695312 C5.72152344 14.69880859 5.70476562 15.77066406 5.6875 16.875 C5.67847656 17.95845703 5.66945313 19.04191406 5.66015625 20.15820312 C5.6365734 22.8348571 5.60366126 25.51106797 5.5625 28.1875 C2.9225 28.1875 0.2825 28.1875 -2.4375 28.1875 C-2.4375 27.5275 -2.4375 26.8675 -2.4375 26.1875 C-3.4275 26.8475 -4.4175 27.5075 -5.4375 28.1875 C-10.46064846 28.85621636 -14.98050328 28.84457695 -19.625 26.75 C-21.92593521 23.49695367 -22.23328979 21.25254534 -21.9609375 17.31640625 C-21.4375 15.1875 -21.4375 15.1875 -19.25 12.625 C-14.23927426 9.94371577 -7.92387561 10.89445917 -2.4375 11.1875 C-3.7464572 8.06552522 -3.7464572 8.06552522 -6.4375 6.1875 C-10.60485187 6.03024144 -14.38191928 6.20432892 -18.4375 7.1875 C-20.4375 4.1875 -20.4375 4.1875 -20.4375 1.1875 C-13.4754653 -2.36758155 -7.27489372 -3.42658037 0 0 Z " fill="#8A00F7" transform="translate(393.4375,239.8125)"/>
<path d="M0 0 C2.64 0 5.28 0 8 0 C15 13.75862069 15 13.75862069 15 18 C15.66 18 16.32 18 17 18 C17.17015625 17.45472656 17.3403125 16.90945312 17.515625 16.34765625 C19.32540814 10.71615022 21.50345378 5.36060431 24 0 C26.64 0 29.28 0 32 0 C29.69171104 7.23516147 26.96934062 14.2355733 24.0625 21.25 C23.63259766 22.3121875 23.20269531 23.374375 22.75976562 24.46875 C20.10834666 30.87399885 17.92908819 36.04727454 12 40 C9.625 40.265625 9.625 40.265625 7 40.25 C6.13375 40.25515625 5.2675 40.2603125 4.375 40.265625 C2 40 2 40 -1 38 C-0.01 35.03 -0.01 35.03 1 32 C2.9490625 32.0309375 2.9490625 32.0309375 4.9375 32.0625 C6.29165633 32.08399454 7.64756083 32.07148199 9 32 C9.33 31.67 9.66 31.34 10 31 C9.6564557 24.48146711 7.10295958 19.13605316 4.4375 13.25 C3.59797179 11.38240006 2.76310925 9.51269369 1.93359375 7.640625 C1.56290771 6.82110352 1.19222168 6.00158203 0.81030273 5.15722656 C0 3 0 3 0 0 Z " fill="#F5F5F5" transform="translate(133,239)"/>
<path d="M0 0 C2.64 0 5.28 0 8 0 C8.33 0.66 8.66 1.32 9 2 C9.99 1.34 10.98 0.68 12 0 C15.1875 -0.125 15.1875 -0.125 18 0 C18 2.31 18 4.62 18 7 C16.865625 7.28875 15.73125 7.5775 14.5625 7.875 C13.386875 8.24625 12.21125 8.6175 11 9 C9.88176185 11.23647631 9.80603939 12.64891529 9.68359375 15.1328125 C9.64169922 15.93847656 9.59980469 16.74414062 9.55664062 17.57421875 C9.49766602 18.83685547 9.49766602 18.83685547 9.4375 20.125 C9.39431641 20.97449219 9.35113281 21.82398438 9.30664062 22.69921875 C9.20045764 24.79928223 9.09971503 26.89961948 9 29 C6.03 29 3.06 29 0 29 C0 19.43 0 9.86 0 0 Z " fill="#F7F7F7" transform="translate(240,239)"/>
<path d="M0 0 C0 2.64 0 5.28 0 8 C-1.11375 8.268125 -2.2275 8.53625 -3.375 8.8125 C-7.21840951 9.65809019 -7.21840951 9.65809019 -9 13 C-9.3626117 14.92744369 -9.3626117 14.92744369 -9.4140625 17.01171875 C-9.47207031 18.14770508 -9.47207031 18.14770508 -9.53125 19.30664062 C-9.57765625 20.48516602 -9.57765625 20.48516602 -9.625 21.6875 C-9.68300781 22.88342773 -9.68300781 22.88342773 -9.7421875 24.10351562 C-9.83632494 26.06863475 -9.91924632 28.0342854 -10 30 C-12.64 30 -15.28 30 -18 30 C-18 20.43 -18 10.86 -18 1 C-15.36 1 -12.72 1 -10 1 C-9.67 1.66 -9.34 2.32 -9 3 C-8.2575 2.505 -7.515 2.01 -6.75 1.5 C-4 0 -4 0 0 0 Z " fill="#FBFBFB" transform="translate(354,238)"/>
<path d="M0 0 C2.64 0 5.28 0 8 0 C8 9.57 8 19.14 8 29 C5.36 29 2.72 29 0 29 C0 19.43 0 9.86 0 0 Z " fill="#8F00FF" transform="translate(407,239)"/>
<path d="M0 0 C3.375 1.0625 3.375 1.0625 5.3125 2.75 C6.6864563 5.74037548 6.71476395 7.8007661 6.375 11.0625 C4.975 14.7625 4.975 14.7625 2.375 16.0625 C-1 16.4375 -1 16.4375 -4.625 16.0625 C-7.5486459 13.5136805 -8.47409176 11.86734394 -9.1875 8.0625 C-8.16376258 2.6025671 -5.56370371 0.09592593 0 0 Z " fill="#0A0A0A" transform="translate(280.625,244.9375)"/>
<path d="M0 0 C1.9375 1.0625 1.9375 1.0625 3 3 C3.75471698 9.79245283 3.75471698 9.79245283 1.4375 13.5 C-1.91034349 15.56021138 -4.14014247 15.49125459 -8 15 C-10.14295281 13.41262755 -10.89591096 12.50919233 -11.43359375 9.87890625 C-11.4399798 6.09198099 -11.40682818 3.68347134 -9.4375 0.375 C-5.92803102 -1.60470045 -3.81658625 -1.04088716 0 0 Z " fill="#070707" transform="translate(189,246)"/>
<path d="M0 0 C3 0.25 3 0.25 5 2.25 C5.25 5.25 5.25 5.25 5 8.25 C3 10.25 3 10.25 0 10.5 C-3 10.25 -3 10.25 -5 8.25 C-5.25 5.25 -5.25 5.25 -5 2.25 C-3 0.25 -3 0.25 0 0 Z " fill="#8900F5" transform="translate(362,257.75)"/>
<path d="M0 0 C2 2 2 2 2.3125 5 C2.1578125 6.485 2.1578125 6.485 2 8 C-1 10 -1 10 -3.5625 9.75 C-6 9 -6 9 -8 7 C-8.3125 4.5 -8.3125 4.5 -8 2 C-4.77626323 -0.14915785 -3.73296326 -0.38286803 0 0 Z " fill="#8400EC" transform="translate(414,225)"/>
<path d="M0 0 C3.625 0.375 3.625 0.375 6.0625 2.25 C7.625 4.375 7.625 4.375 7.625 6.375 C3.005 6.375 -1.615 6.375 -6.375 6.375 C-4.91785714 0.54642857 -4.91785714 0.54642857 0 0 Z " fill="#161616" transform="translate(314.375,244.625)"/>
<path d="M0 0 C3.3 0 6.6 0 10 0 C9.6875 2.375 9.6875 2.375 9 5 C5.77626323 7.14915785 4.73296326 7.38286803 1 7 C0.34 6.34 -0.32 5.68 -1 5 C-0.625 2.375 -0.625 2.375 0 0 Z " fill="#0A0012" transform="translate(381,256)"/>
<path d="M0 0 C3.3 0 6.6 0 10 0 C9.6875 2.375 9.6875 2.375 9 5 C5.77626323 7.14915785 4.73296326 7.38286803 1 7 C0.34 6.34 -0.32 5.68 -1 5 C-0.625 2.375 -0.625 2.375 0 0 Z " fill="#131313" transform="translate(214,256)"/>
</svg>
